<svg xmlns="http://www.w3.org/2000/svg" width="360" height="720" viewBox="0 0 360 720">
  <defs>
    <linearGradient id="sky" x1="0" y1="0" x2="0" y2="1"><stop offset="0" stop-color="#a8dff3"/><stop offset="1" stop-color="#dcf3fc"/></linearGradient>
    <linearGradient id="soil" x1="0" y1="0" x2="0" y2="1"><stop offset="0" stop-color="#e5a862"/><stop offset="1" stop-color="#c98a48"/></linearGradient>
    <linearGradient id="hv" x1="0" y1="0" x2="1" y2="0"><stop offset="0" stop-color="#d99a1f"/><stop offset=".4" stop-color="#f5be3c"/><stop offset="1" stop-color="#d99a1f"/></linearGradient>
    <linearGradient id="bar" x1="0" y1="0" x2="0" y2="1"><stop offset="0" stop-color="#ffe680"/><stop offset="1" stop-color="#e8b81c"/></linearGradient>
  </defs>
  <rect width="360" height="720" fill="url(#sky)"/>
  <g stroke="rgba(255,255,255,.55)" stroke-width="2.4" fill="none">
    <g transform="translate(60,300)"><path d="M0-13V13M-11-6 11 6M-11 6 11-6"/></g>
    <g transform="translate(300,250)"><rect x="-9" y="-7" width="18" height="15"/><path d="M0-7V8"/></g>
    <g transform="translate(280,430)"><path d="M-8 7q-1-15 8-16 9 1 8 16z"/></g>
    <g transform="translate(80,470)"><path d="M-2 12V-3a4 4 0 0 1 8 0v4"/></g>
    <g transform="translate(180,360)"><path d="M0-11 7 0 0 11-7 0z"/></g>
  </g>

  <rect x="0" y="596" width="360" height="124" fill="url(#soil)"/>
  <rect x="0" y="588" width="360" height="14" fill="#3f9e2a"/>
  <rect x="0" y="589" width="360" height="9" fill="#5cc23f"/>

  <g transform="translate(74,566)">
    <ellipse cx="0" cy="24" rx="22" ry="5" fill="rgba(0,0,0,.14)"/>
    <g stroke="#a3700f" stroke-width="2.2" fill="url(#hv)">
      <rect x="-24" y="-24" width="48" height="15" rx="7"/><rect x="-27" y="-9" width="54" height="15" rx="7"/>
      <rect x="-25" y="6" width="50" height="15" rx="7"/>
    </g>
    <path d="M-17-22q9-11 17-5 8-6 17 4-17 4-34 1z" fill="#fff"/>
    <ellipse cx="10" cy="-1" rx="10" ry="8" fill="#4a2c10" stroke="#a3700f" stroke-width="2"/>
  </g>

  <g transform="translate(150,540) rotate(-18)">
    <ellipse cx="0" cy="0" rx="11" ry="9" fill="#ffd23f" stroke="#221a10" stroke-width="2"/>
    <rect x="-6.5" y="-9" width="3.6" height="18" fill="#221a10"/><rect x="0.5" y="-9" width="3.6" height="18" fill="#221a10"/>
    <circle cx="10" cy="0" r="4.6" fill="#221a10"/>
    <ellipse cx="-1" cy="-9" rx="9" ry="3.6" fill="rgba(236,250,255,.8)" stroke="rgba(90,120,140,.5)"/>
  </g>
  <g transform="translate(196,494) rotate(-34)">
    <ellipse cx="0" cy="0" rx="10" ry="8" fill="#ffd23f" stroke="#221a10" stroke-width="2"/>
    <rect x="-6" y="-8" width="3.2" height="16" fill="#221a10"/><rect x="0.4" y="-8" width="3.2" height="16" fill="#221a10"/>
    <circle cx="9" cy="0" r="4" fill="#221a10"/>
  </g>

  <path d="M187 560a58 58 0 1 1 116 0" fill="none" stroke="rgba(0,0,0,.18)" stroke-width="15" stroke-linecap="round" transform="translate(0,3)"/>
  <path d="M187 560a58 58 0 1 1 116 0" fill="none" stroke="#1b1b1f" stroke-width="12" stroke-linecap="round"/>

  <g transform="translate(245,560)">
    <path d="M-9-19-27-40-28-13z" fill="#f2a94e" stroke="#3a2a18" stroke-width="2.4" stroke-linejoin="round"/>
    <path d="M9-19 27-40 28-13z" fill="#f2a94e" stroke="#3a2a18" stroke-width="2.4" stroke-linejoin="round"/>
    <circle cx="0" cy="0" r="29" fill="#fdf6ea" stroke="#3a2a18" stroke-width="2.6"/>
    <path d="M-29-29h58v24q-14-10-29-4-15-6-29 4z" fill="#f2a94e"/>
    <ellipse cx="-10" cy="0" rx="6.8" ry="7.8" fill="#fff" stroke="#3a2a18" stroke-width="2"/>
    <ellipse cx="10" cy="0" rx="6.8" ry="7.8" fill="#fff" stroke="#3a2a18" stroke-width="2"/>
    <circle cx="-10" cy="1" r="4.2" fill="#1d1d22"/><circle cx="10" cy="1" r="4.2" fill="#1d1d22"/>
    <circle cx="-11.4" cy="-.8" r="1.6" fill="#fff"/><circle cx="8.6" cy="-.8" r="1.6" fill="#fff"/>
    <path d="M-18-11-7-7" stroke="#3a2a18" stroke-width="3" stroke-linecap="round" fill="none"/>
    <ellipse cx="0" cy="8" rx="3.8" ry="3" fill="#3a2a18"/>
    <ellipse cx="0" cy="17" rx="6.6" ry="5.6" fill="#7c2f3a" stroke="#3a2a18" stroke-width="2.4"/>
    <ellipse cx="0" cy="20" rx="3.6" ry="2.4" fill="#ef7d92"/>
  </g>

  <rect x="0" y="0" width="360" height="150" fill="#0c121e" opacity=".93"/>
  <g transform="translate(28,38)"><circle r="17" fill="#57c6f0" stroke="#1f7ba6" stroke-width="2"/><rect x="-5.5" y="-7" width="4" height="14" fill="#fff"/><rect x="1.5" y="-7" width="4" height="14" fill="#fff"/></g>
  <g transform="translate(332,38)"><circle r="17" fill="#57c6f0" stroke="#1f7ba6" stroke-width="2"/><path d="M7-9a8 8 0 1 0 3 6" fill="none" stroke="#fff" stroke-width="3" stroke-linecap="round"/><path d="M7-11 8-3 1-6z" fill="#fff"/></g>
  <text x="180" y="46" text-anchor="middle" font-family="system-ui,-apple-system,'Segoe UI',Roboto,sans-serif" font-size="27" font-weight="900" fill="#ffd83b" stroke="#9a6a00" stroke-width="5" paint-order="stroke">LEVEL 6</text>

  <rect x="52" y="70" width="284" height="24" rx="12" fill="#2f4152"/>
  <rect x="55" y="73" width="190" height="18" rx="9" fill="url(#bar)"/>
  <path d="M65 73q60-9 120 1t100-1" fill="#fff" opacity=".9"/>
  <g transform="translate(30,82)"><circle r="16" fill="#fff"/><circle r="13" fill="#57c6f0"/><g transform="rotate(-35)"><rect x="-9" y="-3" width="13" height="6" rx="2" fill="#ffd83b"/><path d="M4-3 10 0 4 3z" fill="#fff"/></g></g>
  <g font-family="system-ui,sans-serif">
    <g transform="translate(99,118)"><rect x="-15" y="-14" width="30" height="28" rx="8" fill="#fff" stroke="#5a6a75" stroke-width="2.4"/><path d="M0-10 3-3h7l-6 5 2 7-6-4-6 4 2-7-6-5h7z" fill="#ffd83b" stroke="#9a6a00" stroke-width="1.6" stroke-linejoin="round"/></g>
    <g transform="translate(194,118)"><rect x="-15" y="-14" width="30" height="28" rx="8" fill="#fff" stroke="#5a6a75" stroke-width="2.4"/><path d="M0-10 3-3h7l-6 5 2 7-6-4-6 4 2-7-6-5h7z" fill="#ffd83b" stroke="#9a6a00" stroke-width="1.6" stroke-linejoin="round"/></g>
    <g transform="translate(289,118)"><rect x="-15" y="-14" width="30" height="28" rx="8" fill="#fff" stroke="#5a6a75" stroke-width="2.4"/><path d="M0-10 3-3h7l-6 5 2 7-6-4-6 4 2-7-6-5h7z" fill="#d4dde3" stroke="#a8b6bf" stroke-width="1.6" stroke-linejoin="round"/></g>
  </g>

  <rect x="0" y="640" width="360" height="80" fill="#0c121e"/>
  <text x="180" y="672" text-anchor="middle" font-family="system-ui,-apple-system,'Segoe UI',Roboto,sans-serif" font-size="27" font-weight="900" fill="#ffd83b">SAVE THE DOGES</text>
  <text x="180" y="697" text-anchor="middle" font-family="system-ui,-apple-system,'Segoe UI',Roboto,sans-serif" font-size="12" font-weight="700" fill="#5fbb42" letter-spacing="2.4">DRAW · SHIELD · SURVIVE</text>
</svg>
